%TF.GenerationSoftware,KiCad,Pcbnew,9.0.1*%
%TF.CreationDate,2026-06-11T16:58:29+02:00*%
%TF.ProjectId,programmer_bridge,70726f67-7261-46d6-9d65-725f62726964,rev?*%
%TF.SameCoordinates,Original*%
%TF.FileFunction,Copper,L2,Bot*%
%TF.FilePolarity,Positive*%
%FSLAX46Y46*%
G04 Gerber Fmt 4.6, Leading zero omitted, Abs format (unit mm)*
G04 Created by KiCad (PCBNEW 9.0.1) date 2026-06-11 16:58:29*
%MOMM*%
%LPD*%
G01*
G04 APERTURE LIST*
%TA.AperFunction,ComponentPad*%
%ADD10C,1.473200*%
%TD*%
%TA.AperFunction,ComponentPad*%
%ADD11C,1.168400*%
%TD*%
%TA.AperFunction,ComponentPad*%
%ADD12R,1.700000X1.700000*%
%TD*%
%TA.AperFunction,ComponentPad*%
%ADD13C,1.700000*%
%TD*%
%TA.AperFunction,ViaPad*%
%ADD14C,1.000000*%
%TD*%
%TA.AperFunction,Conductor*%
%ADD15C,0.300000*%
%TD*%
%TA.AperFunction,Conductor*%
%ADD16C,0.500000*%
%TD*%
G04 APERTURE END LIST*
D10*
%TO.P,J1,1,1*%
%TO.N,/T_SWO*%
X106960000Y-98950000D03*
%TO.P,J1,2,2*%
%TO.N,/GND*%
X104420000Y-97680000D03*
%TO.P,J1,3,3*%
%TO.N,/T_SWCLK*%
X106960000Y-96410000D03*
%TO.P,J1,4,4*%
%TO.N,/T_NRST*%
X104420000Y-95140000D03*
%TO.P,J1,5,5*%
%TO.N,/T_SWDIO*%
X106960000Y-93870000D03*
%TO.P,J1,6,6*%
%TO.N,/T_VCC*%
X104420000Y-92600000D03*
%TD*%
D11*
%TO.P,J2,1,1*%
%TO.N,unconnected-(J2-Pad1)*%
X122000000Y-99030000D03*
%TO.P,J2,2,2*%
%TO.N,unconnected-(J2-Pad2)*%
X120730000Y-99030000D03*
%TO.P,J2,3,3*%
%TO.N,/T_VCC*%
X122000000Y-97760000D03*
%TO.P,J2,4,4*%
%TO.N,/T_SWDIO*%
X120730000Y-97760000D03*
%TO.P,J2,5,5*%
%TO.N,/GND*%
X122000000Y-96490000D03*
%TO.P,J2,6,6*%
%TO.N,/T_SWCLK*%
X120730000Y-96490000D03*
%TO.P,J2,7,7*%
%TO.N,/GND*%
X122000000Y-95220000D03*
%TO.P,J2,8,8*%
%TO.N,/T_SWO*%
X120730000Y-95220000D03*
%TO.P,J2,9,9*%
%TO.N,unconnected-(J2-Pad9)*%
X122000000Y-93950000D03*
%TO.P,J2,10,10*%
%TO.N,unconnected-(J2-Pad10)*%
X120730000Y-93950000D03*
%TO.P,J2,11,11*%
%TO.N,unconnected-(J2-Pad11)*%
X122000000Y-92680000D03*
%TO.P,J2,12,12*%
%TO.N,/T_NRST*%
X120730000Y-92680000D03*
%TO.P,J2,13,13*%
%TO.N,unconnected-(J2-Pad13)*%
X122000000Y-91410000D03*
%TO.P,J2,14,14*%
%TO.N,unconnected-(J2-Pad14)*%
X120730000Y-91410000D03*
%TD*%
D12*
%TO.P,J3,1,Pin_1*%
%TO.N,/T_VCC*%
X111370000Y-103840000D03*
D13*
%TO.P,J3,2,Pin_2*%
%TO.N,/GND*%
X113910000Y-103840000D03*
%TD*%
D14*
%TO.N,/GND*%
X101120000Y-104740000D03*
%TO.N,/T_SWDIO*%
X111150000Y-97770000D03*
%TO.N,/GND*%
X123790000Y-95210000D03*
X115960000Y-89390000D03*
X105030000Y-103880000D03*
X123730000Y-96490000D03*
%TD*%
D15*
%TO.N,/T_SWDIO*%
X111160000Y-97760000D02*
X120730000Y-97760000D01*
X111150000Y-97770000D02*
X111160000Y-97760000D01*
%TO.N,/T_SWCLK*%
X120730000Y-96490000D02*
X107040000Y-96490000D01*
X107040000Y-96490000D02*
X106960000Y-96410000D01*
D16*
%TO.N,/GND*%
X122000000Y-95220000D02*
X123780000Y-95220000D01*
X122000000Y-96490000D02*
X123730000Y-96490000D01*
X122000000Y-95220000D02*
X122000000Y-96490000D01*
X123780000Y-95220000D02*
X123790000Y-95210000D01*
%TD*%
%TA.AperFunction,Conductor*%
%TO.N,/GND*%
G36*
X126837539Y-85020185D02*
G01*
X126883294Y-85072989D01*
X126894500Y-85124500D01*
X126894500Y-105875500D01*
X126874815Y-105942539D01*
X126822011Y-105988294D01*
X126770500Y-105999500D01*
X90019500Y-105999500D01*
X89952461Y-105979815D01*
X89906706Y-105927011D01*
X89895500Y-105875500D01*
X89895500Y-102942135D01*
X110019500Y-102942135D01*
X110019500Y-104737870D01*
X110019501Y-104737876D01*
X110025908Y-104797483D01*
X110076202Y-104932328D01*
X110076206Y-104932335D01*
X110162452Y-105047544D01*
X110162455Y-105047547D01*
X110277664Y-105133793D01*
X110277671Y-105133797D01*
X110412517Y-105184091D01*
X110412516Y-105184091D01*
X110419444Y-105184835D01*
X110472127Y-105190500D01*
X112267872Y-105190499D01*
X112327483Y-105184091D01*
X112462331Y-105133796D01*
X112577546Y-105047546D01*
X112663796Y-104932331D01*
X112714091Y-104797483D01*
X112720500Y-104737873D01*
X112720499Y-104713979D01*
X112723330Y-104700963D01*
X112733940Y-104681525D01*
X112740179Y-104660275D01*
X112756803Y-104639643D01*
X112756808Y-104639636D01*
X112756811Y-104639634D01*
X112756818Y-104639626D01*
X113427037Y-103969408D01*
X113444075Y-104032993D01*
X113509901Y-104147007D01*
X113602993Y-104240099D01*
X113717007Y-104305925D01*
X113780590Y-104322962D01*
X113148282Y-104955269D01*
X113148282Y-104955270D01*
X113202449Y-104994624D01*
X113391782Y-105091095D01*
X113593870Y-105156757D01*
X113803754Y-105190000D01*
X114016246Y-105190000D01*
X114226127Y-105156757D01*
X114226130Y-105156757D01*
X114428217Y-105091095D01*
X114617554Y-104994622D01*
X114671716Y-104955270D01*
X114671717Y-104955270D01*
X114039408Y-104322962D01*
X114102993Y-104305925D01*
X114217007Y-104240099D01*
X114310099Y-104147007D01*
X114375925Y-104032993D01*
X114392962Y-103969408D01*
X115025270Y-104601717D01*
X115025270Y-104601716D01*
X115064622Y-104547554D01*
X115161095Y-104358217D01*
X115226757Y-104156130D01*
X115226757Y-104156127D01*
X115260000Y-103946246D01*
X115260000Y-103733753D01*
X115226757Y-103523872D01*
X115226757Y-103523869D01*
X115161095Y-103321782D01*
X115064624Y-103132449D01*
X115025270Y-103078282D01*
X115025269Y-103078282D01*
X114392962Y-103710590D01*
X114375925Y-103647007D01*
X114310099Y-103532993D01*
X114217007Y-103439901D01*
X114102993Y-103374075D01*
X114039409Y-103357037D01*
X114671716Y-102724728D01*
X114617550Y-102685375D01*
X114428217Y-102588904D01*
X114226129Y-102523242D01*
X114016246Y-102490000D01*
X113803754Y-102490000D01*
X113593872Y-102523242D01*
X113593869Y-102523242D01*
X113391782Y-102588904D01*
X113202439Y-102685380D01*
X113148282Y-102724727D01*
X113148282Y-102724728D01*
X113780591Y-103357037D01*
X113717007Y-103374075D01*
X113602993Y-103439901D01*
X113509901Y-103532993D01*
X113444075Y-103647007D01*
X113427037Y-103710591D01*
X112756818Y-103040372D01*
X112723333Y-102979049D01*
X112723330Y-102979036D01*
X112720499Y-102966015D01*
X112720499Y-102942128D01*
X112714091Y-102882517D01*
X112685926Y-102807002D01*
X112663798Y-102747673D01*
X112663793Y-102747664D01*
X112577547Y-102632455D01*
X112577544Y-102632452D01*
X112462335Y-102546206D01*
X112462328Y-102546202D01*
X112327482Y-102495908D01*
X112327483Y-102495908D01*
X112267883Y-102489501D01*
X112267881Y-102489500D01*
X112267873Y-102489500D01*
X112267864Y-102489500D01*
X110472129Y-102489500D01*
X110472123Y-102489501D01*
X110412516Y-102495908D01*
X110277671Y-102546202D01*
X110277664Y-102546206D01*
X110162455Y-102632452D01*
X110162452Y-102632455D01*
X110076206Y-102747664D01*
X110076202Y-102747671D01*
X110025908Y-102882517D01*
X110019501Y-102942116D01*
X110019500Y-102942135D01*
X89895500Y-102942135D01*
X89895500Y-100732820D01*
X96205800Y-100732820D01*
X96205800Y-100977179D01*
X96205801Y-100977195D01*
X96237696Y-101219466D01*
X96300945Y-101455515D01*
X96394460Y-101681280D01*
X96394465Y-101681291D01*
X96516643Y-101892908D01*
X96516654Y-101892924D01*
X96665411Y-102086788D01*
X96665417Y-102086795D01*
X96838204Y-102259582D01*
X96838210Y-102259587D01*
X97032084Y-102408352D01*
X97032091Y-102408356D01*
X97243708Y-102530534D01*
X97243713Y-102530536D01*
X97243716Y-102530538D01*
X97281542Y-102546206D01*
X97469484Y-102624054D01*
X97469485Y-102624054D01*
X97469487Y-102624055D01*
X97705532Y-102687303D01*
X97947814Y-102719200D01*
X97947821Y-102719200D01*
X98192179Y-102719200D01*
X98192186Y-102719200D01*
X98434468Y-102687303D01*
X98670513Y-102624055D01*
X98896284Y-102530538D01*
X99107916Y-102408352D01*
X99301790Y-102259587D01*
X99474587Y-102086790D01*
X99623352Y-101892916D01*
X99745538Y-101681284D01*
X99839055Y-101455513D01*
X99902303Y-101219468D01*
X99934200Y-100977186D01*
X99934200Y-100732814D01*
X99902303Y-100490532D01*
X99839055Y-100254487D01*
X99833054Y-100240000D01*
X99745539Y-100028719D01*
X99745534Y-100028708D01*
X99623356Y-99817091D01*
X99623352Y-99817084D01*
X99474587Y-99623210D01*
X99474582Y-99623204D01*
X99301795Y-99450417D01*
X99301788Y-99450411D01*
X99107924Y-99301654D01*
X99107922Y-99301652D01*
X99107916Y-99301648D01*
X99107911Y-99301645D01*
X99107908Y-99301643D01*
X98896291Y-99179465D01*
X98896280Y-99179460D01*
X98670515Y-99085945D01*
X98434466Y-99022696D01*
X98192195Y-98990801D01*
X98192192Y-98990800D01*
X98192186Y-98990800D01*
X97947814Y-98990800D01*
X97947808Y-98990800D01*
X97947804Y-98990801D01*
X97705533Y-99022696D01*
X97469484Y-99085945D01*
X97243719Y-99179460D01*
X97243708Y-99179465D01*
X97032091Y-99301643D01*
X97032075Y-99301654D01*
X96838211Y-99450411D01*
X96838204Y-99450417D01*
X96665417Y-99623204D01*
X96665411Y-99623211D01*
X96516654Y-99817075D01*
X96516643Y-99817091D01*
X96394465Y-100028708D01*
X96394460Y-100028719D01*
X96300945Y-100254484D01*
X96237696Y-100490533D01*
X96205801Y-100732804D01*
X96205800Y-100732820D01*
X89895500Y-100732820D01*
X89895500Y-90572820D01*
X96205800Y-90572820D01*
X96205800Y-90817179D01*
X96205801Y-90817195D01*
X96237696Y-91059466D01*
X96300945Y-91295515D01*
X96394460Y-91521280D01*
X96394465Y-91521291D01*
X96516643Y-91732908D01*
X96516654Y-91732924D01*
X96665411Y-91926788D01*
X96665417Y-91926795D01*
X96838204Y-92099582D01*
X96838210Y-92099587D01*
X97032084Y-92248352D01*
X97032091Y-92248356D01*
X97243708Y-92370534D01*
X97243713Y-92370536D01*
X97243716Y-92370538D01*
X97356601Y-92417296D01*
X97469484Y-92464054D01*
X97469485Y-92464054D01*
X97469487Y-92464055D01*
X97705532Y-92527303D01*
X97947814Y-92559200D01*
X97947821Y-92559200D01*
X98192179Y-92559200D01*
X98192186Y-92559200D01*
X98434468Y-92527303D01*
X98670513Y-92464055D01*
X98896284Y-92370538D01*
X99107916Y-92248352D01*
X99301790Y-92099587D01*
X99474587Y-91926790D01*
X99623352Y-91732916D01*
X99745538Y-91521284D01*
X99839055Y-91295513D01*
X99840532Y-91290000D01*
X102950000Y-91290000D01*
X102950000Y-96200000D01*
X103290000Y-96540000D01*
X103613659Y-96540000D01*
X103680698Y-96559685D01*
X103726453Y-96612489D01*
X103730835Y-96637282D01*
X104304797Y-97211244D01*
X104233723Y-97230289D01*
X104123677Y-97293824D01*
X104033824Y-97383677D01*
X103970289Y-97493723D01*
X103951244Y-97564797D01*
X103385913Y-96999466D01*
X103385913Y-96999467D01*
X103362366Y-97031877D01*
X103273999Y-97205305D01*
X103213848Y-97390428D01*
X103183400Y-97582671D01*
X103183400Y-97777328D01*
X103213848Y-97969571D01*
X103273999Y-98154694D01*
X103362366Y-98328122D01*
X103385912Y-98360531D01*
X103385913Y-98360531D01*
X103951244Y-97795201D01*
X103970289Y-97866277D01*
X104033824Y-97976323D01*
X104123677Y-98066176D01*
X104233723Y-98129711D01*
X104304797Y-98148755D01*
X103739467Y-98714085D01*
X103771883Y-98737636D01*
X103945305Y-98826000D01*
X104130428Y-98886151D01*
X104322672Y-98916600D01*
X104517328Y-98916600D01*
X104709571Y-98886151D01*
X104894694Y-98826000D01*
X105068112Y-98737638D01*
X105068125Y-98737630D01*
X105100531Y-98714086D01*
X105100532Y-98714085D01*
X104535202Y-98148755D01*
X104606277Y-98129711D01*
X104716323Y-98066176D01*
X104806176Y-97976323D01*
X104869711Y-97866277D01*
X104888755Y-97795202D01*
X105454084Y-98360531D01*
X105506270Y-98356424D01*
X105574647Y-98370788D01*
X105624405Y-98419839D01*
X105640000Y-98480042D01*
X105640000Y-100240000D01*
X105660000Y-100260000D01*
X108210000Y-100260000D01*
X108270000Y-100200000D01*
X108270000Y-97264500D01*
X108289685Y-97197461D01*
X108342489Y-97151706D01*
X108394000Y-97140500D01*
X110142235Y-97140500D01*
X110209274Y-97160185D01*
X110255029Y-97212989D01*
X110264973Y-97282147D01*
X110256796Y-97311952D01*
X110187950Y-97478160D01*
X110187947Y-97478170D01*
X110149500Y-97671456D01*
X110149500Y-97671459D01*
X110149500Y-97868541D01*
X110149500Y-97868543D01*
X110149499Y-97868543D01*
X110187947Y-98061829D01*
X110187950Y-98061839D01*
X110263364Y-98243907D01*
X110263371Y-98243920D01*
X110372860Y-98407781D01*
X110372863Y-98407785D01*
X110512214Y-98547136D01*
X110512218Y-98547139D01*
X110676079Y-98656628D01*
X110676092Y-98656635D01*
X110814793Y-98714086D01*
X110858165Y-98732051D01*
X110858169Y-98732051D01*
X110858170Y-98732052D01*
X111051456Y-98770500D01*
X111051459Y-98770500D01*
X111248543Y-98770500D01*
X111378582Y-98744632D01*
X111441835Y-98732051D01*
X111623914Y-98656632D01*
X111787782Y-98547139D01*
X111888103Y-98446817D01*
X111949424Y-98413334D01*
X111975783Y-98410500D01*
X119336000Y-98410500D01*
X119403039Y-98430185D01*
X119448794Y-98482989D01*
X119460000Y-98534500D01*
X119460000Y-100390000D01*
X123340000Y-100390000D01*
X123340000Y-89980000D01*
X119460000Y-89980000D01*
X119460000Y-95715500D01*
X119440315Y-95782539D01*
X119387511Y-95828294D01*
X119336000Y-95839500D01*
X108394000Y-95839500D01*
X108326961Y-95819815D01*
X108281206Y-95767011D01*
X108270000Y-95715500D01*
X108270000Y-91290000D01*
X102950000Y-91290000D01*
X99840532Y-91290000D01*
X99902303Y-91059468D01*
X99934200Y-90817186D01*
X99934200Y-90572814D01*
X99902303Y-90330532D01*
X99839055Y-90094487D01*
X99745538Y-89868716D01*
X99745536Y-89868713D01*
X99745534Y-89868708D01*
X99623356Y-89657091D01*
X99623352Y-89657084D01*
X99474587Y-89463210D01*
X99474582Y-89463204D01*
X99301795Y-89290417D01*
X99301788Y-89290411D01*
X99107924Y-89141654D01*
X99107922Y-89141652D01*
X99107916Y-89141648D01*
X99107911Y-89141645D01*
X99107908Y-89141643D01*
X98896291Y-89019465D01*
X98896280Y-89019460D01*
X98670515Y-88925945D01*
X98434466Y-88862696D01*
X98192195Y-88830801D01*
X98192192Y-88830800D01*
X98192186Y-88830800D01*
X97947814Y-88830800D01*
X97947808Y-88830800D01*
X97947804Y-88830801D01*
X97705533Y-88862696D01*
X97469484Y-88925945D01*
X97243719Y-89019460D01*
X97243708Y-89019465D01*
X97032091Y-89141643D01*
X97032075Y-89141654D01*
X96838211Y-89290411D01*
X96838204Y-89290417D01*
X96665417Y-89463204D01*
X96665411Y-89463211D01*
X96516654Y-89657075D01*
X96516643Y-89657091D01*
X96394465Y-89868708D01*
X96394460Y-89868719D01*
X96300945Y-90094484D01*
X96237696Y-90330533D01*
X96205801Y-90572804D01*
X96205800Y-90572820D01*
X89895500Y-90572820D01*
X89895500Y-85124500D01*
X89915185Y-85057461D01*
X89967989Y-85011706D01*
X90019500Y-85000500D01*
X126770500Y-85000500D01*
X126837539Y-85020185D01*
G37*
%TD.AperFunction*%
%TD*%
M02*
