%TF.GenerationSoftware,KiCad,Pcbnew,9.0.1*%
%TF.CreationDate,2026-06-11T16:58:29+02:00*%
%TF.ProjectId,programmer_bridge,70726f67-7261-46d6-9d65-725f62726964,rev?*%
%TF.SameCoordinates,Original*%
%TF.FileFunction,Copper,L1,Top*%
%TF.FilePolarity,Positive*%
%FSLAX46Y46*%
G04 Gerber Fmt 4.6, Leading zero omitted, Abs format (unit mm)*
G04 Created by KiCad (PCBNEW 9.0.1) date 2026-06-11 16:58:29*
%MOMM*%
%LPD*%
G01*
G04 APERTURE LIST*
G04 Aperture macros list*
%AMRoundRect*
0 Rectangle with rounded corners*
0 $1 Rounding radius*
0 $2 $3 $4 $5 $6 $7 $8 $9 X,Y pos of 4 corners*
0 Add a 4 corners polygon primitive as box body*
4,1,4,$2,$3,$4,$5,$6,$7,$8,$9,$2,$3,0*
0 Add four circle primitives for the rounded corners*
1,1,$1+$1,$2,$3*
1,1,$1+$1,$4,$5*
1,1,$1+$1,$6,$7*
1,1,$1+$1,$8,$9*
0 Add four rect primitives between the rounded corners*
20,1,$1+$1,$2,$3,$4,$5,0*
20,1,$1+$1,$4,$5,$6,$7,0*
20,1,$1+$1,$6,$7,$8,$9,0*
20,1,$1+$1,$8,$9,$2,$3,0*%
G04 Aperture macros list end*
%TA.AperFunction,SMDPad,CuDef*%
%ADD10R,1.800000X1.000000*%
%TD*%
%TA.AperFunction,ComponentPad*%
%ADD11C,1.473200*%
%TD*%
%TA.AperFunction,ComponentPad*%
%ADD12C,1.168400*%
%TD*%
%TA.AperFunction,ComponentPad*%
%ADD13R,1.700000X1.700000*%
%TD*%
%TA.AperFunction,ComponentPad*%
%ADD14C,1.700000*%
%TD*%
%TA.AperFunction,SMDPad,CuDef*%
%ADD15RoundRect,0.237500X0.300000X0.237500X-0.300000X0.237500X-0.300000X-0.237500X0.300000X-0.237500X0*%
%TD*%
%TA.AperFunction,SMDPad,CuDef*%
%ADD16RoundRect,0.237500X0.237500X-0.300000X0.237500X0.300000X-0.237500X0.300000X-0.237500X-0.300000X0*%
%TD*%
%TA.AperFunction,ViaPad*%
%ADD17C,1.000000*%
%TD*%
%TA.AperFunction,Conductor*%
%ADD18C,0.500000*%
%TD*%
%TA.AperFunction,Conductor*%
%ADD19C,0.300000*%
%TD*%
G04 APERTURE END LIST*
D10*
%TO.P,TP6,1,1*%
%TO.N,/T_VCC*%
X103020000Y-86790000D03*
%TD*%
%TO.P,TP3,1,1*%
%TO.N,/GND*%
X102910000Y-104750000D03*
%TD*%
D11*
%TO.P,J1,1,1*%
%TO.N,/T_SWO*%
X106960000Y-98950000D03*
%TO.P,J1,2,2*%
%TO.N,/GND*%
X104420000Y-97680000D03*
%TO.P,J1,3,3*%
%TO.N,/T_SWCLK*%
X106960000Y-96410000D03*
%TO.P,J1,4,4*%
%TO.N,/T_NRST*%
X104420000Y-95140000D03*
%TO.P,J1,5,5*%
%TO.N,/T_SWDIO*%
X106960000Y-93870000D03*
%TO.P,J1,6,6*%
%TO.N,/T_VCC*%
X104420000Y-92600000D03*
%TD*%
D12*
%TO.P,J2,1,1*%
%TO.N,unconnected-(J2-Pad1)*%
X122000000Y-99030000D03*
%TO.P,J2,2,2*%
%TO.N,unconnected-(J2-Pad2)*%
X120730000Y-99030000D03*
%TO.P,J2,3,3*%
%TO.N,/T_VCC*%
X122000000Y-97760000D03*
%TO.P,J2,4,4*%
%TO.N,/T_SWDIO*%
X120730000Y-97760000D03*
%TO.P,J2,5,5*%
%TO.N,/GND*%
X122000000Y-96490000D03*
%TO.P,J2,6,6*%
%TO.N,/T_SWCLK*%
X120730000Y-96490000D03*
%TO.P,J2,7,7*%
%TO.N,/GND*%
X122000000Y-95220000D03*
%TO.P,J2,8,8*%
%TO.N,/T_SWO*%
X120730000Y-95220000D03*
%TO.P,J2,9,9*%
%TO.N,unconnected-(J2-Pad9)*%
X122000000Y-93950000D03*
%TO.P,J2,10,10*%
%TO.N,unconnected-(J2-Pad10)*%
X120730000Y-93950000D03*
%TO.P,J2,11,11*%
%TO.N,unconnected-(J2-Pad11)*%
X122000000Y-92680000D03*
%TO.P,J2,12,12*%
%TO.N,/T_NRST*%
X120730000Y-92680000D03*
%TO.P,J2,13,13*%
%TO.N,unconnected-(J2-Pad13)*%
X122000000Y-91410000D03*
%TO.P,J2,14,14*%
%TO.N,unconnected-(J2-Pad14)*%
X120730000Y-91410000D03*
%TD*%
D10*
%TO.P,SWDIO,1,1*%
%TO.N,/T_SWDIO*%
X122890000Y-104730000D03*
%TD*%
%TO.P,SWCLK,1,1*%
%TO.N,/T_SWCLK*%
X119820000Y-104700000D03*
%TD*%
D13*
%TO.P,J3,1,Pin_1*%
%TO.N,/T_VCC*%
X111370000Y-103840000D03*
D14*
%TO.P,J3,2,Pin_2*%
%TO.N,/GND*%
X113910000Y-103840000D03*
%TD*%
D15*
%TO.P,C4,1*%
%TO.N,/T_VCC*%
X108452500Y-103860000D03*
%TO.P,C4,2*%
%TO.N,/GND*%
X106727500Y-103860000D03*
%TD*%
D16*
%TO.P,C5,1*%
%TO.N,/T_NRST*%
X115950000Y-92622500D03*
%TO.P,C5,2*%
%TO.N,/GND*%
X115950000Y-90897500D03*
%TD*%
D17*
%TO.N,/GND*%
X101120000Y-104740000D03*
%TO.N,/T_SWDIO*%
X111150000Y-97770000D03*
%TO.N,/GND*%
X123790000Y-95210000D03*
X115960000Y-89390000D03*
X105030000Y-103880000D03*
X123730000Y-96490000D03*
%TD*%
D18*
%TO.N,/GND*%
X101130000Y-104750000D02*
X101120000Y-104740000D01*
X102910000Y-104750000D02*
X101130000Y-104750000D01*
%TO.N,/T_VCC*%
X103020000Y-91200000D02*
X104420000Y-92600000D01*
X103020000Y-86790000D02*
X103020000Y-91200000D01*
D19*
%TO.N,/T_SWDIO*%
X122230000Y-102840000D02*
X122890000Y-103500000D01*
X122890000Y-103500000D02*
X122890000Y-104730000D01*
X119290000Y-102840000D02*
X122230000Y-102840000D01*
X118570000Y-98670000D02*
X118570000Y-102120000D01*
X120730000Y-97760000D02*
X119480000Y-97760000D01*
X119480000Y-97760000D02*
X118570000Y-98670000D01*
X118570000Y-102120000D02*
X119290000Y-102840000D01*
%TO.N,/T_SWCLK*%
X118240000Y-104700000D02*
X119820000Y-104700000D01*
X118670000Y-96490000D02*
X117130000Y-98030000D01*
X117130000Y-98030000D02*
X117130000Y-103590000D01*
X117130000Y-103590000D02*
X118240000Y-104700000D01*
X120730000Y-96490000D02*
X118670000Y-96490000D01*
D18*
%TO.N,/GND*%
X115950000Y-89400000D02*
X115960000Y-89390000D01*
X115950000Y-90897500D02*
X115950000Y-89400000D01*
D19*
%TO.N,/T_NRST*%
X113540000Y-92010000D02*
X114152500Y-92622500D01*
X104420000Y-94310000D02*
X106720000Y-92010000D01*
X104420000Y-95140000D02*
X104420000Y-94310000D01*
X106720000Y-92010000D02*
X113540000Y-92010000D01*
X114152500Y-92622500D02*
X120672500Y-92622500D01*
X120672500Y-92622500D02*
X120730000Y-92680000D01*
%TO.N,/T_SWDIO*%
X109080000Y-93870000D02*
X106960000Y-93870000D01*
X111150000Y-97770000D02*
X111150000Y-95940000D01*
X111150000Y-95940000D02*
X109080000Y-93870000D01*
%TO.N,/T_SWO*%
X107130000Y-99120000D02*
X113110000Y-99120000D01*
X117010000Y-95220000D02*
X120730000Y-95220000D01*
X106960000Y-98950000D02*
X107130000Y-99120000D01*
X113110000Y-99120000D02*
X117010000Y-95220000D01*
D18*
%TO.N,/GND*%
X105050000Y-103860000D02*
X105030000Y-103880000D01*
X106727500Y-103860000D02*
X105050000Y-103860000D01*
%TO.N,/T_VCC*%
X125000000Y-96960000D02*
X124200000Y-97760000D01*
X109740000Y-87280000D02*
X124010000Y-87280000D01*
X111240000Y-103970000D02*
X111370000Y-103840000D01*
X102430000Y-100220000D02*
X103530000Y-101320000D01*
X125000000Y-88270000D02*
X125000000Y-96960000D01*
X102430000Y-94590000D02*
X102430000Y-100220000D01*
X108452500Y-102382500D02*
X108452500Y-103860000D01*
X124200000Y-97760000D02*
X122000000Y-97760000D01*
X111350000Y-103860000D02*
X111370000Y-103840000D01*
X103530000Y-101320000D02*
X107390000Y-101320000D01*
X104420000Y-92600000D02*
X102430000Y-94590000D01*
X124010000Y-87280000D02*
X125000000Y-88270000D01*
X108452500Y-103860000D02*
X111350000Y-103860000D01*
X107390000Y-101320000D02*
X108452500Y-102382500D01*
X104420000Y-92600000D02*
X109740000Y-87280000D01*
D19*
%TO.N,unconnected-(J2-Pad10)*%
X120810000Y-94090000D02*
X120840000Y-94120000D01*
%TD*%
M02*
